<?xml version="1.0" encoding="UTF-8"?>
<!DOCTYPE svg PUBLIC "-//W3C//DTD SVG 1.1//EN" "http://www.w3.org/Graphics/SVG/1.1/DTD/svg11.dtd">
<!-- Creator: CorelDRAW -->
<svg xmlns="http://www.w3.org/2000/svg" xml:space="preserve" width="1938" height="390" version="1.1" style="shape-rendering:geometricPrecision; text-rendering:geometricPrecision; image-rendering:optimizeQuality; fill-rule:evenodd; clip-rule:evenodd"
viewBox="226 1000 1938 390"
 xmlns:xlink="http://www.w3.org/1999/xlink"
 xmlns:xodm="http://www.corel.com/coreldraw/odm/2003">
 <defs>
  <style type="text/css">
   <![CDATA[
    .str3 {stroke:#D6F23C;stroke-width:10;stroke-miterlimit:22.9256}
    .str0 {stroke:#D6F23C;stroke-width:18;stroke-miterlimit:22.9256}
    .str1 {stroke:#D6F23C;stroke-width:15;stroke-miterlimit:22.9256}
    .str4 {stroke:#D6F23C;stroke-width:14;stroke-linecap:round;stroke-miterlimit:22.9256}
    .str2 {stroke:#D6F23C;stroke-width:18;stroke-linecap:round;stroke-miterlimit:22.9256}
    .fil0 {fill:none}
    .fil1 {fill:black;fill-rule:nonzero}
    .fil2 {fill:#D6F23C;fill-rule:nonzero}
   ]]>
  </style>
 </defs>
 <g id="Слой_x0020_2">
  <metadata id="CorelCorpID_0Corel-Layer"/>
  <g id="_40970150304">
   <g id="camera">
    <path class="fil0 str0" d="M290.8 1326.99c0,-53.65 0,-107.3 0,-160.94 0.23,-27.11 19.61,-52.02 47.47,-52.81l92.19 -0.25c4.43,-0.21 7.1,-2.01 9.66,-5.6l14.57 -25.5c6.82,-12.22 17.13,-16.66 30.27,-16.98l98.92 0c13.14,0.32 23.45,4.76 30.27,16.98l14.57 25.5c2.56,3.59 5.23,5.39 9.66,5.6l92.19 0.25c27.86,0.79 47.24,25.7 47.47,52.81 0,53.64 0,107.29 0,160.94"/>
    <circle class="fil0 str1" cx="720.21" cy="1170.33" r="19.08"/>
    <path class="fil0 str0" d="M681.65 1318.28c0,-81.45 -66.04,-147.49 -147.5,-147.49 -81.46,0 -147.49,66.04 -147.49,147.49"/>
    <line class="fil0 str2" x1="366.49" y1="1317.37" x2="703.56" y2= "1317.37" />
    <circle class="fil0 str3" cx="534.26" cy="1150.18" r="17.69"/>
    <path class="fil0 str4" d="M506.06 1199.28c-40.96,13.37 -72.7,44.52 -85.37,83.79"/>
   </g>
   <g id="text">
    <path class="fil1" d="M871.91 1327.87l0 -220.83 77.92 0 52.5 109.44 52.5 -109.44 75.41 0 0 220.83 -60.83 0 0 -135.55 -47.71 93.68 -41.25 0 -47.71 -93.68 0 135.55 -60.83 0zm541.46 0l0 -220.83 64.17 0 0 82.22 84.16 0 0 -82.22 64.17 0 0 220.83 -64.17 0 0 -86.39 -84.16 0 0 86.39 -64.17 0zm254.17 0l0 -220.83 62.5 0 0 133.4 93.96 -133.4 56.04 0 0 220.83 -62.5 0 0 -133.4 -93.96 133.4 -56.04 0zm309.44 0l0 -168.19 -67.78 0 0 -52.64 200 0 0 52.64 -67.77 0 0 168.19 -64.45 0z"/>
    <path class="fil2" d="M1240.66 1335.09c-15.83,0 -29.37,-3.05 -40.62,-9.16 -11.25,-6.12 -19.8,-14.52 -25.63,-25.21 -5.83,-10.7 -8.75,-22.57 -8.75,-35.63 0,-21.94 6.74,-38.75 20.21,-50.41 13.47,-11.67 33.82,-17.5 61.04,-17.5l62.5 0 0 -9.17c0,-13.33 -3.12,-22.5 -9.37,-27.5 -6.25,-5 -14.93,-7.5 -26.05,-7.5 -10.55,0 -18.33,1.6 -23.33,4.79 -5,3.2 -7.78,8.4 -8.33,15.63l-64.17 0c0.83,-13.34 5.07,-25.28 12.71,-35.84 7.64,-10.55 18.61,-18.89 32.92,-25 14.3,-6.11 31.73,-9.16 52.29,-9.16 19.44,0 36.53,2.91 51.25,8.75 14.72,5.83 26.18,15.2 34.37,28.12 8.2,12.92 12.29,30.21 12.29,51.88l0 81.25c0,11.66 0.28,21.87 0.84,30.62 0.55,8.75 1.39,17.29 2.5,25.63l-61.25 0c-0.28,-4.73 -0.63,-8.89 -1.04,-12.5 -0.42,-3.62 -0.63,-8.06 -0.63,-13.34 -6.67,8.89 -15.9,16.32 -27.71,22.29 -11.8,5.98 -27.15,8.96 -46.04,8.96zm20.83 -45.41c9.17,0 17.37,-1.67 24.59,-5 7.22,-3.34 12.91,-8.41 17.08,-15.21 4.17,-6.81 6.25,-14.52 6.25,-23.13l0 -9.16 -50 0c-9.44,0 -16.46,2.5 -21.04,7.5 -4.58,5 -6.88,10.69 -6.88,17.08 0,8.33 2.3,15.07 6.88,20.21 4.58,5.14 12.29,7.71 23.12,7.71z"/>
   </g>
  </g>
 </g>
</svg>
