<?xml version="1.0" encoding="UTF-8"?>
<svg xmlns="http://www.w3.org/2000/svg" width="552" height="314" viewBox="258 432 552 314">
 <defs>
  <style type="text/css">
   <![CDATA[
    .str2 {stroke:#1A1B1E;stroke-width:20;stroke-miterlimit:22.9256}
    .str1 {stroke:#1A1B1E;stroke-width:14;stroke-miterlimit:22.9256}
    .str0 {stroke:#1A1B1E;stroke-width:25;stroke-miterlimit:22.9256}
    .str4 {stroke:#1A1B1E;stroke-width:14;stroke-linecap:round;stroke-miterlimit:22.9256}
    .str3 {stroke:#1A1B1E;stroke-width:25;stroke-linecap:round;stroke-miterlimit:22.9256}
    .fil1 {fill:none}
   ]]>
  </style>
 </defs>
 <g id="camera">
  <path class="fil1 str0" d="M290.8 726.99c0,-53.65 0,-107.3 0,-160.94 0.23,-27.11 19.61,-52.02 47.47,-52.81l92.19 -0.25c4.43,-0.21 7.1,-2.01 9.66,-5.6l14.57 -25.5c6.82,-12.22 17.13,-16.66 30.27,-16.98l98.92 0c13.14,0.32 23.45,4.76 30.27,16.98l14.57 25.5c2.56,3.59 5.23,5.39 9.66,5.6l92.19 0.25c27.86,0.79 47.24,25.7 47.47,52.81 0,53.64 0,107.29 0,160.94"/>
  <circle class="fil1 str1" cx="720.21" cy="570.33" r="19.08"/>
  <path class="fil1 str2" d="M681.65 718.28c0,-81.45 -66.04,-147.49 -147.5,-147.49 -81.46,0 -147.49,66.04 -147.49,147.49"/>
  <line class="fil1 str3" x1="366.49" y1="713.37" x2="703.56" y2="713.37" />
  <circle class="fil1 str1" cx="534.26" cy="550.18" r="17.69"/>
  <path class="fil1 str4" d="M506.06 599.28c-40.96,13.37 -72.7,44.52 -85.37,83.79"/>
 </g>
</svg>
